ground reactions
version=1
nRows=22
nColumns=19
inDegrees=no
endheader
time	ground_force_l_vx	ground_force_l_vy	ground_force_l_vz	ground_force_l_px	ground_force_l_py	ground_force_l_pz	ground_torque_l_x	ground_torque_l_y	ground_torque_l_z	ground_force_r_vx	ground_force_r_vy	ground_force_r_vz	ground_force_r_px	ground_force_r_py	ground_force_r_pz	ground_torque_r_x	ground_torque_r_y	ground_torque_r_z
4.243000	-37.320266	596.257056	27.751523	0.989127	0.000000	-0.558747	0.000000	2.735370	0.000000	0.000000	0.000000	0.000000	-0.000000	-0.000000	0.000000	0.000000	-0.000000	0.000000
4.244000	-36.787017	594.456891	27.714766	0.988235	0.000000	-0.558757	0.000000	2.712061	0.000000	0.000000	0.000000	0.000000	-0.000000	-0.000000	0.000000	0.000000	-0.000000	0.000000
4.245000	-36.259573	592.690674	27.679753	0.987334	0.000000	-0.558770	0.000000	2.688618	0.000000	0.000000	0.000000	0.000000	-0.000000	-0.000000	0.000000	0.000000	-0.000000	0.000000
4.246000	-35.738165	590.958877	27.646518	0.986427	0.000000	-0.558783	0.000000	2.665053	0.000000	0.000000	0.000000	0.000000	-0.000000	-0.000000	0.000000	0.000000	-0.000000	0.000000
4.247000	-35.223025	589.261972	27.615136	0.985515	0.000000	-0.558799	0.000000	2.641380	0.000000	0.000000	0.000000	0.000000	0.000000	0.000000	-0.000000	0.000000	-0.000000	0.000000
4.248000	-34.714380	587.600418	27.585711	0.984597	0.000000	-0.558816	0.000000	2.617610	0.000000	0.000000	0.000000	0.000000	0.000000	0.000000	-0.000000	0.000000	-0.000000	0.000000
4.249000	-34.212451	585.974669	27.558366	0.983677	0.000000	-0.558835	0.000000	2.593753	0.000000	0.000000	0.000000	0.000000	0.000000	0.000000	-0.000000	0.000000	-0.000000	0.000000
4.250000	-33.717452	584.385158	27.533234	0.982755	0.000000	-0.558854	0.000000	2.569822	0.000000	0.000000	0.000000	0.000000	0.000000	0.000000	-0.000000	0.000000	-0.000000	0.000000
4.251000	-33.229584	582.832305	27.510444	0.981833	0.000000	-0.558876	0.000000	2.545825	0.000000	0.000000	0.000000	0.000000	0.000000	0.000000	-0.000000	0.000000	-0.000000	0.000000
4.252000	-32.749032	581.316504	27.490114	0.980912	0.000000	-0.558899	0.000000	2.521772	0.000000	0.000000	0.000000	0.000000	0.000000	0.000000	-0.000000	0.000000	-0.000000	0.000000
4.253000	-32.275963	579.838123	27.472338	0.979993	0.000000	-0.558923	0.000000	2.497671	0.000000	0.000000	0.000000	0.000000	0.000000	0.000000	-0.000000	0.000000	-0.000000	0.000000
4.254000	-31.810522	578.397500	27.457178	0.979079	0.000000	-0.558949	0.000000	2.473532	0.000000	0.000000	0.000000	0.000000	0.000000	0.000000	-0.000000	0.000000	-0.000000	0.000000
4.255000	-31.352829	576.994939	27.444657	0.978169	0.000000	-0.558976	0.000000	2.449361	0.000000	0.000000	0.000000	0.000000	0.000000	0.000000	-0.000000	0.000000	-0.000000	0.000000
4.256000	-30.902975	575.630707	27.434749	0.977265	0.000000	-0.559005	0.000000	2.425166	0.000000	0.000000	0.000000	0.000000	0.000000	0.000000	-0.000000	0.000000	-0.000000	0.000000
4.257000	-30.461018	574.305031	27.427379	0.976367	0.000000	-0.559035	0.000000	2.400954	0.000000	0.000000	0.000000	0.000000	0.000000	0.000000	-0.000000	0.000000	-0.000000	0.000000
4.258000	-30.026985	573.018098	27.422417	0.975477	0.000000	-0.559068	0.000000	2.376732	0.000000	0.000000	0.000000	0.000000	-0.000000	-0.000000	0.000000	0.000000	-0.000000	0.000000
4.259000	-29.600864	571.770049	27.419678	0.974595	0.000000	-0.559102	0.000000	2.352505	0.000000	0.000000	0.000000	0.000000	-0.000000	-0.000000	0.000000	0.000000	-0.000000	0.000000
4.260000	-29.182607	570.560984	27.418923	0.973720	0.000000	-0.559139	0.000000	2.328281	0.000000	0.000000	0.000000	0.000000	-0.000000	-0.000000	0.000000	0.000000	-0.000000	0.000000
4.261000	-28.772130	569.390956	27.419865	0.972853	0.000000	-0.559177	0.000000	2.304064	0.000000	0.000000	0.000000	0.000000	-0.000000	-0.000000	0.000000	0.000000	-0.000000	0.000000
4.262000	-28.369309	568.259976	27.422169	0.971993	0.000000	-0.559219	0.000000	2.279863	0.000000	0.000000	0.000000	0.000000	-0.000000	-0.000000	0.000000	0.000000	-0.000000	0.000000
4.263000	-27.973984	567.168013	27.425464	0.971140	0.000000	-0.559263	0.000000	2.255683	0.000000	0.000000	0.000000	0.000000	-0.000000	-0.000000	0.000000	0.000000	-0.000000	0.000000
4.264000	-27.585959	566.114996	27.429349	0.970293	0.000000	-0.559309	0.000000	2.231532	0.000000	0.000000	0.000000	0.000000	-0.000000	-0.000000	0.000000	0.000000	-0.000000	0.000000
